<svg width="18" height="19" viewBox="0 0 18 19" fill="none" xmlns="http://www.w3.org/2000/svg">
<path d="M1 2.5C1 1.94772 1.44772 1.5 2 1.5H6C6.55228 1.5 7 1.94772 7 2.5V6.5C7 7.05228 6.55228 7.5 6 7.5H2C1.44772 7.5 1 7.05228 1 6.5V2.5ZM11 2.5C11 1.94772 11.4477 1.5 12 1.5H16C16.5523 1.5 17 1.94772 17 2.5V6.5C17 7.05228 16.5523 7.5 16 7.5H12C11.4477 7.5 11 7.05228 11 6.5V2.5ZM1 12.5C1 11.9477 1.44772 11.5 2 11.5H6C6.55228 11.5 7 11.9477 7 12.5V16.5C7 17.0523 6.55228 17.5 6 17.5H2C1.44772 17.5 1 17.0523 1 16.5V12.5ZM11 12.5C11 11.9477 11.4477 11.5 12 11.5H16C16.5523 11.5 17 11.9477 17 12.5V16.5C17 17.0523 16.5523 17.5 16 17.5H12C11.4477 17.5 11 17.0523 11 16.5V12.5Z" stroke="white" stroke-width="2"/>
</svg>
