<svg width="16" height="17" viewBox="0 0 16 17" fill="none" xmlns="http://www.w3.org/2000/svg">
<path d="M15.9688 12.0937L15.2188 15.25C15.125 15.7187 14.75 16.0312 14.2812 16.0312C6.40625 16 0 9.59375 0 1.71875C0 1.25 0.28125 0.874996 0.75 0.781246L3.90625 0.0312464C4.34375 -0.0625036 4.8125 0.187496 5 0.593746L6.46875 4C6.625 4.40625 6.53125 4.875 6.1875 5.125L4.5 6.5C5.5625 8.65625 7.3125 10.4062 9.5 11.4687L10.875 9.78125C11.125 9.46875 11.5938 9.34375 12 9.5L15.4062 10.9687C15.8125 11.1875 16.0625 11.6562 15.9688 12.0937Z" fill="#192040"/>
</svg>
