<svg width="16" height="16" viewBox="0 0 16 16" fill="none" xmlns="http://www.w3.org/2000/svg">
<path d="M15.646 13.8648L11.896 10.1148C12.7398 8.86478 13.1773 7.30228 12.9585 5.61478C12.5523 2.73978 10.2085 0.42728 7.36478 0.0522799C3.11478 -0.47897 -0.47897 3.11478 0.0522799 7.36478C0.42728 10.2085 2.73978 12.5523 5.61478 12.9585C7.30228 13.1773 8.86478 12.7398 10.146 11.896L13.8648 15.646C14.3648 16.1148 15.146 16.1148 15.646 15.646C16.1148 15.146 16.1148 14.3648 15.646 13.8648ZM2.48978 6.48978C2.48978 4.30228 4.27103 2.48978 6.48978 2.48978C8.67728 2.48978 10.4898 4.30228 10.4898 6.48978C10.4898 8.70853 8.67728 10.4898 6.48978 10.4898C4.27103 10.4898 2.48978 8.70853 2.48978 6.48978Z" fill="#192040"/>
</svg>
